<svg id="SvgjsSvg1001" width="288" height="288" xmlns="http://www.w3.org/2000/svg" version="1.1" xmlns:xlink="http://www.w3.org/1999/xlink" xmlns:svgjs="http://svgjs.com/svgjs"><defs id="SvgjsDefs1002"></defs><g id="SvgjsG1008" transform="matrix(1,0,0,1,0,0)"><svg xmlns="http://www.w3.org/2000/svg" xmlns:xlink="http://www.w3.org/1999/xlink" viewBox="68.544 51.264 150.336 146.304" style="max-height:500px" width="288" height="288"><svg xmlns="http://www.w3.org/2000/svg" viewBox="0 0 590 423" width="288" height="288"><path fill="#000000" d="M0 0 C1.32499818 0.9409776 2.63835415 1.89863988 3.9375 2.875 C4.67871094 3.38804687 5.41992188 3.90109375 6.18359375 4.4296875 C6.76238281 4.90664062 7.34117187 5.38359375 7.9375 5.875 C7.9375 6.535 7.9375 7.195 7.9375 7.875 C9.4225 8.37 9.4225 8.37 10.9375 8.875 C16.04584354 15.21923311 20.12454535 21.91142885 21.9375 29.875 C22.16308594 30.75285156 22.38867188 31.63070312 22.62109375 32.53515625 C25.69812044 46.73534772 22.41444175 60.26051388 15.32421875 72.70703125 C7.47636728 84.72247835 -4.66105433 92.11327502 -18.44921875 95.453125 C-32.46170996 97.7152312 -46.60216046 94.88854916 -58.58203125 87.2734375 C-69.1546479 79.38450037 -78.3179482 67.44964258 -80.84765625 54.17578125 C-81.89667137 42.94178297 -81.25182037 33.49581222 -77.0625 22.875 C-76.82015625 22.17375 -76.5778125 21.4725 -76.328125 20.75 C-72.02293703 10.20668253 -61.20373174 0.48179209 -51.0625 -4.125 C-50.22074219 -4.53363281 -49.37898438 -4.94226563 -48.51171875 -5.36328125 C-32.37740723 -12.00413649 -14.31614015 -9.25114065 0 0 Z M-49.6484375 29.578125 C-53.17584328 35.30772334 -54.61975051 41.32688202 -53.625 48 C-51.65854996 55.41834446 -47.85242 61.02007263 -41.5625 65.4375 C-35.27117009 68.83462837 -29.03142246 68.95090382 -22.0625 67.875 C-14.82877125 65.47428653 -9.51757078 60.54233236 -5.99609375 53.84765625 C-3.47071984 47.58518194 -3.43993548 41.3907434 -5.0625 34.875 C-8.38289948 27.28399026 -13.51237826 23.15694923 -21.01171875 19.87890625 C-32.19959865 16.19736318 -42.43993204 20.49062522 -49.6484375 29.578125 Z" transform="translate(323.063 125.125)" class="svgShape colorffffff-1 selectable"></path><path fill="#000000" d="M0 0 C4.29067546 1.65236651 7.1429553 4.8905207 10.296875 8.1015625 C10.89050842 8.69802582 11.48414185 9.29448914 12.09576416 9.9090271 C13.98526627 11.8096981 15.86768392 13.71721474 17.75 15.625 C19.03209065 16.91712468 20.31463761 18.20879676 21.59765625 19.5 C24.73708432 22.66144479 27.87017801 25.8290461 31 29 C35.29013033 27.36266942 38.05670858 24.10744516 41.15625 20.86328125 C42.35504032 19.63434756 43.55427237 18.40584463 44.75390625 17.17773438 C46.63539399 15.24029986 48.51271532 13.29924539 50.38232422 11.3503418 C52.19178835 9.46858443 54.01637491 7.60262663 55.84375 5.73828125 C56.40114868 5.14880203 56.95854736 4.55932281 57.53283691 3.95198059 C59.13085938 2.33325195 59.13085938 2.33325195 62 0 C65.78562803 0.46005232 67.48013523 2.12741103 70.109375 4.81640625 C71.24052734 5.96206055 71.24052734 5.96206055 72.39453125 7.13085938 C73.17183594 7.93330078 73.94914062 8.73574219 74.75 9.5625 C75.54277344 10.36880859 76.33554687 11.17511719 77.15234375 12.00585938 C79.10847046 13.99733778 81.05725719 15.99547721 83 18 C81.70665529 20.84241762 80.34409604 22.90775233 78.14257812 25.11621094 C77.56858276 25.69651062 76.9945874 26.2768103 76.40319824 26.87469482 C75.78545532 27.48838928 75.1677124 28.10208374 74.53125 28.734375 C73.89513794 29.37240051 73.25902588 30.01042603 72.6036377 30.66778564 C71.26116613 32.01161574 69.91617539 33.35293329 68.56884766 34.69189453 C66.50057835 36.74942465 64.44322672 38.81744049 62.38671875 40.88671875 C61.08137029 42.19074625 59.7754019 43.49415356 58.46875 44.796875 C57.85100708 45.41866638 57.23326416 46.04045776 56.59680176 46.68109131 C52.22993073 51 52.22993073 51 50 51 C49.34 52.32 48.68 53.64 48 55 C47.34 55 46.68 55 46 55 C46 64.57 46 74.14 46 84 C37.09 84 28.18 84 19 84 C17.66177527 81.32355053 18.22468779 79.83415041 18.66796875 76.8828125 C19.55465615 67.66154146 20.07599836 58.7469367 14.28955078 51.0625 C7.7002289 43.19718763 -0.07954236 36.34740624 -7.87792969 29.70947266 C-16.09601674 22.67341346 -16.09601674 22.67341346 -18 18 C-14.65348519 13.7122779 -11.07466717 10.20568225 -6.9375 6.6796875 C-4.49654333 4.56353555 -2.24804455 2.31829594 0 0 Z" transform="translate(262 226)" class="svgShape colorffffff-2 selectable"></path><path fill="#000000" d="M0 0 C8.91 0 17.82 0 27 0 C27.00386719 3.03574219 27.00386719 3.03574219 27.0078125 6.1328125 C27.03564267 8.10875492 27.06368754 10.08470045 27.09765625 12.06054688 C27.11574182 13.42600753 27.12339825 14.79165008 27.12011719 16.15722656 C26.84203434 24.01523265 26.84203434 24.01523265 29.39355469 31.19824219 C31.18599204 33.00013643 31.18599204 33.00013643 34 35 C34 35.66 34 36.32 34 37 C34.58789307 37.26192139 35.17578613 37.52384277 35.78149414 37.79370117 C38.11909667 39.06475808 39.63652604 40.40737956 41.49609375 42.30078125 C42.13740234 42.94853516 42.77871094 43.59628906 43.43945312 44.26367188 C44.09880859 44.93978516 44.75816406 45.61589844 45.4375 46.3125 C46.09298828 46.97701172 46.74847656 47.64152344 47.42382812 48.32617188 C48.70322927 49.62353853 49.9809525 50.92256241 51.25683594 52.22338867 C54.39609385 55.42288165 57.52830888 58.57957966 60.875 61.5625 C61.57625 62.366875 62.2775 63.17125 63 64 C62.50499695 69.61770906 57.2880281 73.98115168 53.2734375 77.5234375 C52.75007813 77.94882813 52.22671875 78.37421875 51.6875 78.8125 C48.85430578 80.89880609 48.85430578 80.89880609 47 84 C41.54758819 83.70462124 39.02709175 80.52884932 35.45703125 76.8125 C34.84736008 76.19479736 34.2376889 75.57709473 33.60954285 74.94067383 C31.66751368 72.96968795 29.73963197 70.98554448 27.8125 69 C25.8721157 67.01712553 23.92892675 65.0370783 21.98332214 63.05932617 C20.77438249 61.828667 19.56895655 60.59454444 18.36738586 59.35668945 C15.47947646 56.29536587 15.47947646 56.29536587 12 54 C11.78770752 54.53391357 11.57541504 55.06782715 11.35668945 55.61791992 C9.48257039 58.90850472 6.93078186 61.43415556 4.29296875 64.11328125 C3.73055984 64.6870903 3.16815094 65.26089935 2.58869934 65.85209656 C1.40042303 67.05921921 0.20924806 68.26349444 -0.98461914 69.46508789 C-2.80987492 71.30984687 -4.61272014 73.17481734 -6.41601562 75.04101562 C-7.57419627 76.21224879 -8.7336592 77.38221563 -9.89453125 78.55078125 C-10.69948784 79.39277824 -10.69948784 79.39277824 -11.52070618 80.25178528 C-15.30235625 83.98925018 -15.30235625 83.98925018 -18.64599609 84.04077148 C-22.85021124 82.18196945 -25.6259336 78.98840528 -28.8125 75.75 C-29.85180664 74.74646484 -29.85180664 74.74646484 -30.91210938 73.72265625 C-31.56630859 73.06652344 -32.22050781 72.41039063 -32.89453125 71.734375 C-33.49112549 71.13850586 -34.08771973 70.54263672 -34.70239258 69.92871094 C-36.37090105 67.44870775 -36.36042837 65.93246684 -36 63 C-34.42578125 61.19140625 -34.42578125 61.19140625 -32.3125 59.5625 C-29.70331757 57.44682318 -27.66978815 55.60374578 -25.5 53 C-23.43318144 50.51981773 -21.50221023 48.63325594 -19.0625 46.5625 C-15.87249622 43.85039941 -13.20155291 41.0323223 -10.60424805 37.75537109 C-8.97582399 35.97354657 -7.38619005 34.94537514 -5.37109375 33.640625 C-2.81685548 31.48440626 -2.07461934 30.34361115 -1.35620117 27.03540039 C-1.12186555 23.44558361 -1.07953957 19.90955622 -1.125 16.3125 C-1.10971721 13.87107353 -1.09162298 11.42966255 -1.0703125 8.98828125 C-1.08215576 7.37240112 -1.08215576 7.37240112 -1.09423828 5.72387695 C-1 3 -1 3 0 0 Z" transform="translate(281 27)" class="svgShape colorffffff-3 selectable"></path><path fill="#000000" d="M0 0 C3.33727786 1.17255709 5.77437487 2.18868404 8 5 C8 5.66 8 6.32 8 7 C9.32 7.66 10.64 8.32 12 9 C12 9.66 12 10.32 12 11 C12.99 11.33 13.98 11.66 15 12 C18.14293274 15.3225289 19 16.29735282 19 21 C18.34 21 17.68 21 17 21 C16.78230957 21.54366211 16.56461914 22.08732422 16.34033203 22.64746094 C14.54913222 25.79135918 12.11723419 28.12947667 9.5546875 30.640625 C9.02481232 31.16767029 8.49493713 31.69471558 7.94900513 32.23773193 C6.26232175 33.91325675 4.56880436 35.58167722 2.875 37.25 C1.72740612 38.38755851 0.58026539 39.52557436 -0.56640625 40.6640625 C-3.37238137 43.44803465 -6.18450464 46.2256576 -9 49 C-7.36266942 53.29013033 -4.10744516 56.05670858 -0.86328125 59.15625 C0.36565244 60.35504032 1.59415537 61.55427237 2.82226562 62.75390625 C4.75970014 64.63539399 6.70075461 66.51271532 8.6496582 68.38232422 C10.53141557 70.19178835 12.39737337 72.01637491 14.26171875 73.84375 C14.85119797 74.40114868 15.44067719 74.95854736 16.04801941 75.53283691 C17.66674805 77.13085938 17.66674805 77.13085938 20 80 C19.54743609 84.19971277 17.33768141 85.77621936 14.1875 88.4375 C11.4562629 90.75723609 9.08066528 92.89821509 6.8515625 95.7109375 C5 98 5 98 2.1875 99.1875 C-3.36529224 98.86086516 -6.23803137 94.97740584 -9.7890625 90.9921875 C-10.97051697 89.6233658 -12.14632634 88.24965115 -13.31640625 86.87109375 C-15.11306898 84.7847351 -15.11306898 84.7847351 -18 82.5 C-21.14960928 79.8753256 -23.61692976 77.03971241 -26.26171875 73.92578125 C-27.85496534 72.16067884 -29.46402094 70.67617778 -31.3125 69.1875 C-34 67 -34 67 -36 64 C-39.11110101 63.67054058 -39.11110101 63.67054058 -42.75 63.875 C-44.10016124 63.90799111 -45.4504377 63.93652306 -46.80078125 63.9609375 C-47.838396 63.97979004 -47.838396 63.97979004 -48.89697266 63.99902344 C-54.27967848 64.00152295 -59.63982075 63.44207664 -65 63 C-65 54.42 -65 45.84 -65 37 C-62.18793545 36.06264515 -60.45309907 35.87137431 -57.54296875 35.8671875 C-56.67736328 35.86589844 -55.81175781 35.86460937 -54.91992188 35.86328125 C-53.56737305 35.86908203 -53.56737305 35.86908203 -52.1875 35.875 C-51.29740234 35.87113281 -50.40730469 35.86726563 -49.49023438 35.86328125 C-44.87992573 35.8701164 -40.5351238 36.05549488 -36 37 C-35.67 36.01 -35.34 35.02 -35 34 C-33.0625 31.8125 -33.0625 31.8125 -31 30 C-30.34 30 -29.68 30 -29 30 C-29 29.34 -29 28.68 -29 28 C-27.56795193 26.76777259 -26.13012419 25.54125525 -24.65625 24.359375 C-21.50510011 21.77305387 -18.71480897 18.97955303 -16.3125 15.6875 C-15.879375 15.130625 -15.44625 14.57375 -15 14 C-14.34 14 -13.68 14 -13 14 C-12.34 12.68 -11.68 11.36 -11 10 C-10.34 10 -9.68 10 -9 10 C-8.67 9.01 -8.34 8.02 -8 7 C-6.36739286 5.62517293 -4.69774938 4.29352333 -3 3 C-1.9826127 2.01769502 -0.97403883 1.02530403 0 0 Z" transform="translate(217 119)" class="svgShape colorffffff-4 selectable"></path><path fill="#000000" d="M0 0 C2.52331666 0.95403866 3.56547704 2.06074896 5.32174683 4.09819031 C5.93593475 4.79547745 6.55012268 5.49276459 7.18292236 6.21118164 C7.84224762 6.96860153 8.50157288 7.72602142 9.18087769 8.50639343 C25.82341906 28.86522568 25.82341906 28.86522568 48.90011597 38.6672821 C53.9935146 38.41444341 59.03936056 37.54004257 64.08322144 36.78764343 C64.08322144 45.36764343 64.08322144 53.94764343 64.08322144 62.78764343 C56.25241191 63.90633051 56.25241191 63.90633051 52.20040894 63.74467468 C51.34318237 63.72340515 50.48595581 63.70213562 49.60275269 63.68022156 C47.83153483 63.62658793 46.0606318 63.56137492 44.29025269 63.48490906 C40.11498046 63.3998922 37.77499583 63.36356365 34.14572144 65.58842468 C32.43491419 67.41263771 30.76202233 69.20430266 29.20822144 71.16264343 C27.15457113 73.63755534 25.06509704 75.74310273 22.58322144 77.78764343 C20.16796622 79.78009686 18.13352027 81.80638551 16.14572144 84.22514343 C13.36964266 87.59662785 10.24240371 90.32281059 6.91915894 93.14311218 C4.67689633 95.15160699 2.85153312 97.35621486 1.08322144 99.78764343 C-2.48442677 99.21145246 -4.16837354 97.9179486 -6.66677856 95.35014343 C-7.28037231 94.7326825 -7.89396606 94.11522156 -8.52615356 93.47904968 C-9.91677856 91.78764343 -9.91677856 91.78764343 -9.91677856 89.78764343 C-10.90677856 89.45764343 -11.89677856 89.12764343 -12.91677856 88.78764343 C-12.91677856 88.12764343 -12.91677856 87.46764343 -12.91677856 86.78764343 C-13.53552856 86.49889343 -14.15427856 86.21014343 -14.79177856 85.91264343 C-16.91677856 84.78764343 -16.91677856 84.78764343 -18.91677856 82.78764343 C-18.93974774 79.13715618 -17.6237047 77.2193022 -15.23294067 74.64970398 C-14.06355099 73.48094462 -12.8832339 72.32305026 -11.69412231 71.17436218 C-11.074048 70.55994766 -10.45397369 69.94553314 -9.81510925 69.3125 C-7.83737273 67.35710885 -5.84617039 65.4161028 -3.85427856 63.47514343 C-2.50896508 62.14989718 -1.16455287 60.82373534 0.17892456 59.49662781 C3.47000272 56.2495927 6.77322575 53.01538748 10.08322144 49.78764343 C6.39413652 45.36491616 2.58973001 41.20805072 -1.56912231 37.21342468 C-2.60289921 36.20685217 -3.63608646 35.19967377 -4.66873169 34.19194031 C-6.27186097 32.63234609 -7.87843155 31.07705417 -9.49514771 29.53153992 C-11.07288298 28.02010599 -12.63446628 26.49347788 -14.19412231 24.96342468 C-15.12474487 24.06535095 -16.05536743 23.16727722 -17.01419067 22.24198914 C-18.91677856 19.78764343 -18.91677856 19.78764343 -18.92800903 17.70951843 C-16.79636712 13.65826659 -13.31794784 10.67756627 -10.10427856 7.47514343 C-9.37918091 6.7216864 -8.65408325 5.96822937 -7.90701294 5.19194031 C-7.20254028 4.48488953 -6.49806763 3.77783875 -5.77224731 3.04936218 C-5.12924683 2.39927185 -4.48624634 1.74918152 -3.82376099 1.07939148 C-1.91677856 -0.21235657 -1.91677856 -0.21235657 0 0 Z" transform="translate(370.917 119.212)" class="svgShape colorffffff-5 selectable"></path><path fill="#000000" d="M0 0 C0.25586913 3.56110675 0.47496153 7.12356545 0.6875 10.6875 C0.76033203 11.69490234 0.83316406 12.70230469 0.90820312 13.74023438 C0.96298828 14.71669922 1.01777344 15.69316406 1.07421875 16.69921875 C1.13182373 17.59471436 1.18942871 18.49020996 1.2487793 19.4128418 C0.77764388 24.3123727 -2.38768182 27.63778187 -5.75732422 31.0112915 C-6.5143866 31.77399353 -7.27144897 32.53669556 -8.05145264 33.32250977 C-8.87752014 34.14452881 -9.70358765 34.96654785 -10.5546875 35.81347656 C-11.42812805 36.69042175 -12.3015686 37.56736694 -13.20147705 38.47088623 C-15.59025016 40.86694043 -17.98342088 43.2584235 -20.37900543 45.64765644 C-22.88701769 48.15059564 -25.39013586 50.65842166 -27.89404297 53.16546631 C-32.09699526 57.37205308 -36.30413809 61.57441413 -40.51367188 65.77441406 C-45.3815774 70.63142188 -50.242217 75.49561184 -55.09917259 80.36356759 C-59.27136364 84.54482937 -63.44743299 88.72218762 -67.62677956 92.89629722 C-70.12222257 95.38862118 -72.61629207 97.88227923 -75.10687256 100.3794632 C-77.88064853 103.16007992 -80.66253605 105.93249087 -83.4453125 108.70410156 C-84.27138 109.53421753 -85.09744751 110.3643335 -85.94854736 111.21960449 C-87.08414093 112.34673859 -87.08414093 112.34673859 -88.24267578 113.49664307 C-88.8997049 114.15291813 -89.55673401 114.80919319 -90.2336731 115.48535538 C-95.1451013 119.69695873 -102.94109824 118.17048858 -109 118 C-112.0277432 117.76522847 -114.99013709 117.4151535 -118 117 C-117.34 115.68 -116.68 114.36 -116 113 C-115.34 113 -114.68 113 -114 113 C-113.67 112.01 -113.34 111.02 -113 110 C-112.34 110 -111.68 110 -111 110 C-110.34 108.68 -109.68 107.36 -109 106 C-108.34 106 -107.68 106 -107 106 C-106.67 105.01 -106.34 104.02 -106 103 C-105.34 103 -104.68 103 -104 103 C-103.67 102.01 -103.34 101.02 -103 100 C-102.34 100 -101.68 100 -101 100 C-100.34 98.68 -99.68 97.36 -99 96 C-98.34 96 -97.68 96 -97 96 C-96.7525 95.38125 -96.505 94.7625 -96.25 94.125 C-94.77229238 91.61289704 -93.56044823 91.23892656 -91 90 C-90.505 88.515 -90.505 88.515 -90 87 C-88.37897032 85.28891311 -86.70496537 83.62746694 -85 82 C-84.113125 81.071875 -83.22625 80.14375 -82.3125 79.1875 C-80 77 -80 77 -78 77 C-77.79375 76.46375 -77.5875 75.9275 -77.375 75.375 C-75.46749574 72.08021991 -72.95180616 69.40636372 -70 67 C-69.34 67 -68.68 67 -68 67 C-67.68946938 66.20296661 -67.68946938 66.20296661 -67.37266541 65.38983154 C-65.43864204 62.02266718 -62.76831862 59.48193861 -60.03735352 56.76269531 C-59.4274054 56.14763626 -58.81745728 55.53257721 -58.18902588 54.89888 C-56.17413135 52.8700998 -54.15190669 50.84882028 -52.12890625 48.828125 C-50.72625465 47.42158711 -49.32382747 46.01482539 -47.9216156 44.60784912 C-44.98361641 41.6623908 -42.04177421 38.72083551 -39.09741211 35.78173828 C-35.31803633 32.0081694 -31.55017338 28.22333194 -27.78530979 24.43529129 C-24.89354135 21.52882249 -21.99490941 18.62927661 -19.09422112 15.73171234 C-17.70156788 14.33854445 -16.311288 12.94299999 -14.92340279 11.54508209 C-12.98667499 9.59607347 -11.04072001 7.65677573 -9.09204102 5.71972656 C-8.51687241 5.13691422 -7.9417038 4.55410187 -7.34910583 3.95362854 C-3.34258505 0 -3.34258505 0 0 0 Z" transform="translate(270 27)" class="svgShape colorffffff-6 selectable"></path><path fill="#000000" d="M0 0 C-0.68967363 4.28735259 -1.58178576 6.20327926 -5 9 C-5.66 9 -6.32 9 -7 9 C-7 9.66 -7 10.32 -7 11 C-8.57421875 12.515625 -8.57421875 12.515625 -10.6875 14.25 C-13.23977762 16.41203482 -15.55071681 18.4998416 -17.625 21.125 C-20.15661285 24.18958397 -22.94726443 26.466879 -26 29 C-26.7425 29.928125 -27.485 30.85625 -28.25 31.8125 C-28.8275 32.534375 -29.405 33.25625 -30 34 C-30.66 34 -31.32 34 -32 34 C-32.33 34.99 -32.66 35.98 -33 37 C-33.66 37 -34.32 37 -35 37 C-35 37.66 -35 38.32 -35 39 C-35.66 39 -36.32 39 -37 39 C-37.37125 39.86625 -37.37125 39.86625 -37.75 40.75 C-39.18299988 43.32939979 -40.78424676 45.06121592 -43 47 C-43.66 47 -44.32 47 -45 47 C-45 47.66 -45 48.32 -45 49 C-45.66 49 -46.32 49 -47 49 C-47.37125 49.86625 -47.37125 49.86625 -47.75 50.75 C-49.18299988 53.32939979 -50.78424676 55.06121592 -53 57 C-53.66 57 -54.32 57 -55 57 C-55 57.66 -55 58.32 -55 59 C-55.66 59 -56.32 59 -57 59 C-57.2475 59.5775 -57.495 60.155 -57.75 60.75 C-59.18299988 63.32939979 -60.78424676 65.06121592 -63 67 C-63.66 67 -64.32 67 -65 67 C-65 67.66 -65 68.32 -65 69 C-65.66 69 -66.32 69 -67 69 C-67.495 70.485 -67.495 70.485 -68 72 C-68.66 72 -69.32 72 -70 72 C-70.268125 72.598125 -70.53625 73.19625 -70.8125 73.8125 C-71.99917406 75.99847854 -73.09599113 77.41332594 -75 79 C-75.66 79 -76.32 79 -77 79 C-77.2475 79.5775 -77.495 80.155 -77.75 80.75 C-79.18299988 83.32939979 -80.78424676 85.06121592 -83 87 C-83.66 87 -84.32 87 -85 87 C-85.34224609 87.83337891 -85.34224609 87.83337891 -85.69140625 88.68359375 C-87.36858311 91.65244712 -89.49663904 93.68615519 -91.9375 96.0625 C-92.81277344 96.91972656 -93.68804687 97.77695312 -94.58984375 98.66015625 C-95.38519531 99.43230469 -96.18054688 100.20445312 -97 101 C-97.83724609 101.89525391 -97.83724609 101.89525391 -98.69140625 102.80859375 C-100 104 -100 104 -102 104 C-102.33 104.99 -102.66 105.98 -103 107 C-103.66 107 -104.32 107 -105 107 C-105.268125 107.639375 -105.53625 108.27875 -105.8125 108.9375 C-107 111 -107 111 -110 112 C-110.4640625 112.99 -110.4640625 112.99 -110.9375 114 C-111.4634375 114.99 -111.4634375 114.99 -112 116 C-114.06640625 116.625 -114.06640625 116.625 -116 117 C-117.66866727 106.43745164 -118.88755487 95.40278726 -112.59350586 86.19406128 C-108.19746559 80.71195627 -103.26259036 75.76160306 -98.21288109 70.88767505 C-95.67126097 68.41418239 -93.19275015 65.87853342 -90.70324707 63.35279846 C-86.51633284 59.12523868 -82.28050777 54.95213328 -78.01171875 50.80737305 C-73.10995343 46.04654867 -68.30260919 41.2038357 -63.53501844 36.30892986 C-58.90371987 31.55914674 -54.20609487 26.88034624 -49.47779846 22.22728157 C-47.48658889 20.26486963 -45.52171504 18.2809524 -43.57554626 16.27389336 C-29.86259794 2.19325011 -19.8579875 -3.28447969 0 0 Z" transform="translate(435 193)" class="svgShape colorffffff-7 selectable"></path><path fill="#000000" d="M0 0 C3.62977018 1.53456372 5.95550493 3.70174297 8.73297119 6.47227478 C9.19374676 6.9292248 9.65452232 7.38617481 10.12926078 7.8569718 C11.66941138 9.38681719 13.20233412 10.92370255 14.73535156 12.46069336 C15.83896927 13.55996336 16.94300403 14.65881479 18.04742432 15.75727844 C21.04362564 18.74008845 24.03338844 21.72927379 27.0216341 24.72005153 C29.5151382 27.21462471 32.01161086 29.70621651 34.50804496 32.19785696 C40.39444123 38.07315873 46.2754931 43.95377296 52.15332031 49.83764648 C58.22380565 55.91417992 64.30342759 61.98146116 70.38756585 68.04432195 C75.60744425 73.24661334 80.82152827 78.45466221 86.03099036 83.66738421 C89.14408798 86.78229861 92.25939268 89.89492337 95.38031769 93.00199699 C98.31231197 95.92146382 101.23702953 98.84802621 104.15621185 101.78030205 C105.23077863 102.85724485 106.30793036 103.93161525 107.38778687 105.00325394 C108.85719539 106.46228032 110.31713096 107.93016204 111.77496338 109.40074158 C112.59569462 110.22130507 113.41642586 111.04186857 114.26202774 111.88729763 C116 114 116 114 116 117 C107.28334656 118.54962728 98.44091688 118.96995224 90 116 C89.67 115.01 89.34 114.02 89 113 C86.99983534 111.79117904 86.99983534 111.79117904 85 111 C85 110.34 85 109.68 85 109 C83.515 108.505 83.515 108.505 82 108 C82 107.34 82 106.68 82 106 C80.515 105.505 80.515 105.505 79 105 C79 104.34 79 103.68 79 103 C77.515 102.505 77.515 102.505 76 102 C73.8125 100.0625 73.8125 100.0625 72 98 C72 97.34 72 96.68 72 96 C70.515 95.505 70.515 95.505 69 95 C69 94.34 69 93.68 69 93 C67.515 92.505 67.515 92.505 66 92 C63.8125 90.0625 63.8125 90.0625 62 88 C62 87.34 62 86.68 62 86 C61.01 85.67 60.02 85.34 59 85 C59 84.34 59 83.68 59 83 C58.01 82.67 57.02 82.34 56 82 C53.8125 80.0625 53.8125 80.0625 52 78 C52 77.34 52 76.68 52 76 C51.01 75.67 50.02 75.34 49 75 C49 74.34 49 73.68 49 73 C48.01 72.67 47.02 72.34 46 72 C46 71.34 46 70.68 46 70 C44.68 69.34 43.36 68.68 42 68 C42 67.34 42 66.68 42 66 C41.01 65.67 40.02 65.34 39 65 C39 64.34 39 63.68 39 63 C38.01 62.67 37.02 62.34 36 62 C34.64613064 60.34997172 33.31321858 58.6825613 32 57 C31.01 56.34 30.02 55.68 29 55 C29 54.34 29 53.68 29 53 C27.515 52.505 27.515 52.505 26 52 C24.64613064 50.34997172 23.31321858 48.6825613 22 47 C21.01 46.34 20.02 45.68 19 45 C19 44.34 19 43.68 19 43 C17.515 42.505 17.515 42.505 16 42 C16 41.34 16 40.68 16 40 C15.01 39.67 14.02 39.34 13 39 C11.65080468 37.34614767 10.31866272 35.678298 9 34 C8.2575 33.443125 7.515 32.88625 6.75 32.3125 C6.1725 31.879375 5.595 31.44625 5 31 C5 30.34 5 29.68 5 29 C4.34 29 3.68 29 3 29 C3 28.34 3 27.68 3 27 C2.34 27 1.68 27 1 27 C-0.3308911 24.33821779 -0.11268993 22.31260604 -0.09765625 19.3359375 C-0.09443359 18.21445312 -0.09121094 17.09296875 -0.08789062 15.9375 C-0.07951172 14.761875 -0.07113281 13.58625 -0.0625 12.375 C-0.05798828 11.19164062 -0.05347656 10.00828125 -0.04882812 8.7890625 C-0.03701467 5.85932493 -0.02054258 2.92968728 0 0 Z" transform="translate(319 27)" class="svgShape colorffffff-8 selectable"></path><path fill="#000000" d="M0 0 C22.87956049 -2.25987476 22.87956049 -2.25987476 29.37890625 2.75390625 C32.17569663 5.41906495 34.52590391 8.3655726 36.79882812 11.48242188 C38.55417505 13.70015287 40.79200134 15.241534 43 17 C44.09452485 18.21074178 45.16718921 19.44140251 46.22427368 20.68496704 C49.66957995 24.66538979 53.28399816 28.41335058 57.02099609 32.11865234 C57.68365479 32.77985077 58.34631348 33.44104919 59.02905273 34.12228394 C60.45253602 35.54199249 61.87717217 36.96054591 63.30286789 38.37803268 C65.55764338 40.61994829 67.80919541 42.8650576 70.05996704 45.11099243 C74.8288315 49.86848833 79.60163837 54.62201686 84.375 59.375 C89.92891312 64.90531607 95.48120066 70.43724417 101.02931595 75.97337723 C103.25037497 78.1879424 105.47441627 80.3994829 107.69857788 82.6109314 C109.05098887 83.95971225 110.403261 85.30863236 111.75537109 86.65771484 C112.37662872 87.27380615 112.99788635 87.88989746 113.63796997 88.5246582 C117.48474415 92.37095107 119.12533096 94.09618804 119.1328125 99.5 C119.13410156 100.386875 119.13539063 101.27375 119.13671875 102.1875 C119.13285156 103.115625 119.12898438 104.04375 119.125 105 C119.12886719 105.928125 119.13273437 106.85625 119.13671875 107.8125 C119.13542969 108.699375 119.13414062 109.58625 119.1328125 110.5 C119.13168457 111.3146875 119.13055664 112.129375 119.12939453 112.96875 C119 115 119 115 118 117 C114.14524203 116.43737679 112.39534835 114.7642431 109.68704224 112.04107666 C108.83197083 111.18868408 107.97689941 110.3362915 107.09591675 109.45806885 C106.1564196 108.50635941 105.21706273 107.55451147 104.27783203 106.60253906 C103.28271618 105.60493964 102.28693095 104.60800755 101.29052734 103.61169434 C99.14607443 101.46453527 97.00646772 99.3126994 94.87048721 97.15711212 C91.49018821 93.74579015 88.09954801 90.34487423 84.70748901 86.94525146 C79.33989271 81.56315899 73.97956081 76.17389539 68.6221503 70.78166556 C59.03817829 61.13585552 49.44213169 51.50206529 39.84321105 41.87113357 C36.47661747 38.49273875 33.11323409 35.11118943 29.75252938 31.72693682 C27.65599857 29.61652171 25.55743356 27.50813755 23.4584198 25.40019226 C22.0288969 23.96322846 20.60197268 22.52368088 19.17514038 21.08404541 C14.93208634 16.82639541 10.68774225 12.76196032 6 9 C4.8374165 7.80631859 3.70374676 6.5824532 2.625 5.3125 C2.12226563 4.73113281 1.61953125 4.14976562 1.1015625 3.55078125 C0 2 0 2 0 0 Z" transform="translate(152 193)" class="svgShape colorffffff-9 selectable"></path><path fill="#000000" d="M0 0 C6.63798879 0.07368101 6.63798879 0.07368101 9.22265625 2.42578125 C10.5625 4.8125 10.5625 4.8125 11.81640625 7.55078125 C13.64407017 11.38267192 15.9821478 14.59756999 18.5 18 C21.28191746 21.80083915 23.95871671 25.60096419 26.3125 29.6875 C27.1535478 26.0410194 27.43014968 22.68799093 27.41015625 18.94921875 C27.40693359 17.88251953 27.40371094 16.81582031 27.40039062 15.71679688 C27.39201172 14.61400391 27.38363281 13.51121094 27.375 12.375 C27.37048828 11.25287109 27.36597656 10.13074219 27.36132812 8.97460938 C27.34957326 6.21221664 27.33163869 3.44985144 27.3125 0.6875 C32.2625 0.6875 37.2125 0.6875 42.3125 0.6875 C42.3125 19.8275 42.3125 38.9675 42.3125 58.6875 C29.3125 58.6875 29.3125 58.6875 26.25 56.125 C22.98915094 50.33962264 22.98915094 50.33962264 21.546875 47.6796875 C19.42103382 44.24874129 16.79293252 41.2148527 14.21484375 38.1171875 C12.3125 35.6875 12.3125 35.6875 9.3125 30.6875 C8.9825 39.9275 8.6525 49.1675 8.3125 58.6875 C4.93127565 59.81457478 2.7231498 59.66040788 -0.8125 59.375 C-1.88757813 59.29636719 -2.96265625 59.21773438 -4.0703125 59.13671875 C-4.93398437 58.98847656 -5.79765625 58.84023438 -6.6875 58.6875 C-7.96983558 56.12282885 -7.81453853 54.29881278 -7.81689453 51.42749023 C-7.82004669 50.32972763 -7.82319885 49.23196503 -7.82644653 48.10093689 C-7.8244223 46.91133865 -7.82239807 45.72174042 -7.8203125 44.49609375 C-7.82126923 43.28051285 -7.82222595 42.06493195 -7.82321167 40.81251526 C-7.82389312 38.23934884 -7.82204128 35.66618071 -7.81787109 33.09301758 C-7.81251779 29.13814464 -7.81781968 25.18338503 -7.82421875 21.22851562 C-7.82355805 18.73437475 -7.82227707 16.24023394 -7.8203125 13.74609375 C-7.82233673 12.55447128 -7.82436096 11.36284882 -7.82644653 10.13511658 C-7.82329437 9.04050613 -7.82014221 7.94589569 -7.81689453 6.81811523 C-7.81609894 5.84929916 -7.81530334 4.88048309 -7.81448364 3.88230896 C-7.54969185 -0.69440179 -3.90533193 0.2489292 0 0 Z" transform="translate(140.688 339.313)" class="svgShape colorffffff-10 selectable"></path><path fill="#000000" d="M0 0 C6.70803163 5.87573882 8.80488025 13.39538018 10.046875 22.01171875 C10.45682521 29.87763841 8.30969161 38.70122622 3.73828125 45.12890625 C-1.52589762 50.94040051 -7.15392695 53.99973827 -15.0859375 54.62890625 C-23.28161104 54.88043587 -30.52079545 53.92299376 -37.453125 49.34765625 C-39.328125 47.41015625 -39.328125 47.41015625 -39.328125 45.41015625 C-39.988125 45.41015625 -40.648125 45.41015625 -41.328125 45.41015625 C-42.14564803 43.82941061 -42.95694497 42.24544402 -43.765625 40.66015625 C-44.21808594 39.7784375 -44.67054688 38.89671875 -45.13671875 37.98828125 C-48.61009078 30.47213194 -48.79072906 20.22279118 -46.38671875 12.3125 C-42.66009933 4.56720635 -37.01998926 -0.80218332 -29.328125 -4.58984375 C-19.08568908 -7.20808702 -8.80116395 -6.01019081 0 0 Z M-29.078125 13.53515625 C-32.04567977 20.36053222 -31.87607381 27.45385156 -29.328125 34.41015625 C-27.48119376 37.1805531 -26.2968671 38.9257852 -23.328125 40.41015625 C-18.82083849 40.95032222 -15.37818377 41.0133815 -11.390625 38.72265625 C-7.46309034 34.31905678 -7.03433833 30.19881433 -7.015625 24.41015625 C-6.99886719 23.21390625 -6.98210937 22.01765625 -6.96484375 20.78515625 C-7.48000107 15.99917855 -9.27741417 13.49005349 -12.578125 10.09765625 C-18.794923 6.28280293 -24.63976018 8.14571326 -29.078125 13.53515625 Z" transform="translate(458.328 344.59)" class="svgShape colorffffff-11 selectable"></path><path fill="#000000" d="M0 0 C2.14918885 -0.01707423 4.2967824 -0.06091743 6.44555664 -0.10522461 C14.62166542 -0.19874327 21.45353 -0.20193639 27.65844727 5.77856445 C32.59806363 11.35632957 32.5674051 16.59161165 32.54516602 23.76000977 C31.92559773 28.90413173 29.77382116 31.77327395 26.11938477 35.29516602 C25.45938477 35.95516602 24.79938477 36.61516602 24.11938477 37.29516602 C24.42231445 37.86025879 24.72524414 38.42535156 25.03735352 39.00756836 C26.40230731 41.55950697 27.76091338 44.11477119 29.11938477 46.67016602 C29.83481445 48.0043457 29.83481445 48.0043457 30.56469727 49.36547852 C31.01586914 50.21625977 31.46704102 51.06704102 31.93188477 51.94360352 C32.35083008 52.72912598 32.76977539 53.51464844 33.20141602 54.32397461 C34.11938477 56.29516602 34.11938477 56.29516602 34.11938477 58.29516602 C28.50938477 58.29516602 22.89938477 58.29516602 17.11938477 58.29516602 C16.45551758 57.00739258 15.79165039 55.71961914 15.10766602 54.39282227 C14.21664689 52.71395466 13.32466975 51.03559524 12.43188477 49.35766602 C11.77929688 48.08246094 11.77929688 48.08246094 11.11352539 46.78149414 C10.6784668 45.97260742 10.2434082 45.1637207 9.79516602 44.33032227 C9.20602417 43.20702515 9.20602417 43.20702515 8.60498047 42.06103516 C6.94942848 39.72028129 6.94942848 39.72028129 2.11938477 39.29516602 C2.11938477 45.56516602 2.11938477 51.83516602 2.11938477 58.29516602 C-2.83061523 58.29516602 -7.78061523 58.29516602 -12.88061523 58.29516602 C-13.85707249 51.77462299 -14.02640663 45.41769089 -14.01342773 38.83032227 C-14.01438446 37.75640732 -14.01534119 36.68249237 -14.0163269 35.57603455 C-14.01700412 33.32119691 -14.01518197 31.06635727 -14.01098633 28.81152344 C-14.00559466 25.34443869 -14.01096563 21.87748133 -14.01733398 18.41040039 C-14.01667384 16.21704073 -14.01539401 14.02368115 -14.01342773 11.83032227 C-14.01545197 10.7887648 -14.0174762 9.74720734 -14.01956177 8.67408752 C-14.01640961 7.71896774 -14.01325745 6.76384796 -14.01000977 5.77978516 C-14.00921417 4.93565567 -14.00841858 4.09152618 -14.00759888 3.22181702 C-13.65660084 -2.1036777 -4.19043525 0.02316725 0 0 Z M2.11938477 13.29516602 C2.11938477 17.58516602 2.11938477 21.87516602 2.11938477 26.29516602 C3.87250977 26.37766602 5.62563477 26.46016602 7.43188477 26.54516602 C8.91108398 26.61477539 8.91108398 26.61477539 10.42016602 26.68579102 C13.21758417 26.5483275 13.21758417 26.5483275 14.98266602 24.50610352 C16.69849066 21.1687951 16.03950063 18.84418436 15.11938477 15.29516602 C11.80567476 13.08602601 10.77478267 13.07035049 6.93188477 13.17016602 C5.34375977 13.21141602 3.75563477 13.25266602 2.11938477 13.29516602 Z" transform="translate(256.88 339.705)" class="svgShape colorffffff-12 selectable"></path><path fill="#000000" d="M0 0 C7.6725 -0.1546875 7.6725 -0.1546875 15.5 -0.3125 C17.89668945 -0.38078003 17.89668945 -0.38078003 20.34179688 -0.45043945 C27.96059016 -0.52480425 34.17916927 -0.53495921 40 5 C44.83189246 10.21335765 46.46586823 14.29986249 46.3203125 21.328125 C45.6769009 26.69511935 43.75303465 31.39305157 39.75 35.0625 C39.1725 35.371875 38.595 35.68125 38 36 C39.74962252 41.84091153 42.55158944 46.7882205 45.5390625 52.07421875 C47 55 47 55 47 58 C32.65686018 59.21352064 32.65686018 59.21352064 29 56.53515625 C27.71720857 54.40420338 26.84947361 52.33701337 26 50 C25.1979112 48.33871575 24.36446941 46.69219459 23.5 45.0625 C23.1390625 44.31097656 22.778125 43.55945313 22.40625 42.78515625 C20.84551166 40.40669686 20.84551166 40.40669686 16 40 C15.67 45.94 15.34 51.88 15 58 C10.05 58 5.1 58 0 58 C0 38.86 0 19.72 0 0 Z M15 13 C15 17.29 15 21.58 15 26 C16.753125 26.061875 18.50625 26.12375 20.3125 26.1875 C21.29863281 26.22230469 22.28476562 26.25710938 23.30078125 26.29296875 C26.00156644 26.22102765 26.00156644 26.22102765 27.828125 24.70703125 C29.81052556 21.81933443 29.42142513 19.37140101 29 16 C26.81735287 13.80731771 25.51205282 13.05818782 22.421875 12.70703125 C21.09929687 12.75923828 21.09929687 12.75923828 19.75 12.8125 C17.39875 12.9053125 17.39875 12.9053125 15 13 Z" transform="translate(474 340)" class="svgShape colorffffff-13 selectable"></path><path fill="#000000" d="M0 0 C2.06298828 -0.34057617 2.06298828 -0.34057617 4.5703125 -0.29296875 C5.46621094 -0.28330078 6.36210938 -0.27363281 7.28515625 -0.26367188 C8.69087891 -0.2259668 8.69087891 -0.2259668 10.125 -0.1875 C11.06988281 -0.17396484 12.01476562 -0.16042969 12.98828125 -0.14648438 C15.32608779 -0.11106306 17.66276237 -0.06167271 20 0 C22.25253308 5.05317009 24.10447694 10.11991429 25.77734375 15.390625 C26.15627525 16.56851593 26.15627525 16.56851593 26.54286194 17.77020264 C27.34427034 20.26245649 28.14125785 22.75609125 28.9375 25.25 C29.98567923 28.52688194 31.03643548 31.80292031 32.08984375 35.078125 C32.34108002 35.86110962 32.59231628 36.64409424 32.85116577 37.45080566 C34.53927438 42.67653514 36.35355182 47.83813069 38.33813477 52.95996094 C39 55 39 55 39 58 C35.31599416 59.23104155 32.08525024 58.90767252 28.25 58.5625 C27.07953125 58.46066406 25.9090625 58.35882813 24.703125 58.25390625 C23.81109375 58.17011719 22.9190625 58.08632813 22 58 C21.01 54.37 20.02 50.74 19 47 C12.73 47 6.46 47 0 47 C-0.33 49.31 -0.66 51.62 -1 54 C-1.66 55.32 -2.32 56.64 -3 58 C-8.28 58 -13.56 58 -19 58 C-17.8751926 50.12634823 -17.8751926 50.12634823 -16.546875 46.25 C-16.25981689 45.40171631 -15.97275879 44.55343262 -15.67700195 43.67944336 C-15.37109131 42.79522705 -15.06518066 41.91101074 -14.75 41 C-14.11324993 39.12631273 -13.47653136 37.25261475 -12.83984375 35.37890625 C-12.52644043 34.46383301 -12.21303711 33.54875977 -11.89013672 32.60595703 C-10.67764727 29.05628276 -9.49426537 25.49752215 -8.3125 21.9375 C-7.7246875 20.17986328 -7.7246875 20.17986328 -7.125 18.38671875 C-6.36564463 16.10074269 -5.6158604 13.81156812 -4.875 11.51953125 C-4.3490625 9.90111328 -4.3490625 9.90111328 -3.8125 8.25 C-3.50957031 7.30640625 -3.20664063 6.3628125 -2.89453125 5.390625 C-2 3 -2 3 0 0 Z M9 20 C6.39973251 26.80568135 6.39973251 26.80568135 6 34 C8.64 34 11.28 34 14 34 C13.40380045 29.13103697 12.43023178 24.67209049 11 20 C10.34 20 9.68 20 9 20 Z" transform="translate(90 340)" class="svgShape colorffffff-14 selectable"></path><path fill="#000000" d="M0 0 C6.93 0 13.86 0 21 0 C22.9027937 5.56419104 24.80522335 11.12850408 26.70678711 16.69311523 C27.35144065 18.57925242 27.99629157 20.46532215 28.64135742 22.35131836 C30.76672208 28.56557417 32.88585538 34.78191863 35 41 C35.26653381 41.78187683 35.53306763 42.56375366 35.80767822 43.36932373 C36.52737952 45.48341399 37.24297103 47.59884264 37.95703125 49.71484375 C38.35510986 50.89038818 38.75318848 52.06593262 39.16333008 53.27709961 C40 56 40 56 40 58 C34.39 58 28.78 58 23 58 C20 50.375 20 50.375 20 47 C13.73 47 7.46 47 1 47 C0.34 49.97 -0.32 52.94 -1 56 C-1.33 56.66 -1.66 57.32 -2 58 C-7.28 58 -12.56 58 -18 58 C-17.19601145 53.1760687 -16.14171747 48.66315724 -14.75 44 C-14.52747559 43.24944336 -14.30495117 42.49888672 -14.07568359 41.72558594 C-12.36886982 36.05064065 -10.44177731 30.47852339 -8.40234375 24.9140625 C-5.4117251 16.67825682 -2.75396869 8.31590544 0 0 Z M10 18 C8.68 23.28 7.36 28.56 6 34 C8.97 34 11.94 34 15 34 C14.27275406 28.47293087 12.66554027 23.30039859 11 18 C10.67 18 10.34 18 10 18 Z" transform="translate(311 340)" class="svgShape colorffffff-15 selectable"></path><path fill="#000000" d="M0 0 C3.71041758 3.89455741 6.45575311 9.06763882 6.703125 14.46484375 C6.66058594 15.18671875 6.61804688 15.90859375 6.57421875 16.65234375 C0.79639384 17.62186539 -3.89963525 18.08384799 -9.42578125 15.65234375 C-11.17578125 13.15234375 -11.17578125 13.15234375 -12.42578125 10.65234375 C-16.15157214 8.16848316 -18.01289527 8.27192255 -22.42578125 8.65234375 C-26.65163052 10.4771423 -28.40090039 12.57398202 -30.42578125 16.65234375 C-31.34028492 23.73526436 -31.14008476 30.46183791 -27.42578125 36.65234375 C-24.29134771 38.74196611 -23.55574433 38.90601929 -19.98828125 38.83984375 C-19.22644531 38.83339844 -18.46460938 38.82695312 -17.6796875 38.8203125 C-15.42779945 38.65249415 -13.54071883 38.45408479 -11.42578125 37.65234375 C-10.12121565 34.65618429 -10.12121565 34.65618429 -9.42578125 31.65234375 C-3.16538516 30.72021234 1.59618938 30.44307203 7.57421875 32.65234375 C5.45824498 38.74020125 3.66258109 43.4327262 -1.42578125 47.65234375 C-2.23015625 48.37421875 -3.03453125 49.09609375 -3.86328125 49.83984375 C-10.40015286 54.46348465 -17.71914283 54.37068404 -25.42578125 53.65234375 C-33.76206264 51.71732235 -38.44220203 48.5736193 -43.61328125 41.77734375 C-48.32983949 33.64534679 -48.70966828 23.81840292 -47.42578125 14.65234375 C-44.83374445 6.66817687 -40.77807239 0.24519805 -33.48828125 -4.09765625 C-22.51738644 -8.5755725 -9.47666302 -7.26765066 0 0 Z" transform="translate(399.426 345.348)" class="svgShape colorffffff-16 selectable"></path><path fill="#000000" d="M0 0 C13.86 0 27.72 0 42 0 C42 4.29 42 8.58 42 13 C29.625 13.495 29.625 13.495 17 14 C17 16.64 17 19.28 17 22 C18.07378906 21.97679687 19.14757812 21.95359375 20.25390625 21.9296875 C21.69009715 21.91091376 23.12629565 21.8927153 24.5625 21.875 C25.26697266 21.85824219 25.97144531 21.84148437 26.69726562 21.82421875 C31.51891822 21.77977956 35.42297438 22.47231996 40 24 C39.67 27.63 39.34 31.26 39 35 C28.605 35.495 28.605 35.495 18 36 C16.86925591 40.80388386 16.86925591 40.80388386 17 45 C17.92280762 44.99214478 17.92280762 44.99214478 18.86425781 44.98413086 C21.65949476 44.96330629 24.45471536 44.95032241 27.25 44.9375 C28.70212891 44.92493164 28.70212891 44.92493164 30.18359375 44.91210938 C31.11816406 44.90888672 32.05273438 44.90566406 33.015625 44.90234375 C33.87446289 44.89710693 34.73330078 44.89187012 35.61816406 44.88647461 C38 45 38 45 42 46 C42 49.96 42 53.92 42 58 C28.47 58 14.94 58 1 58 C-0.125 47.875 -0.125 47.875 -0.11352539 43.48022461 C-0.11344986 42.49988754 -0.11337433 41.51955048 -0.11329651 40.50950623 C-0.10555458 38.9714608 -0.10555458 38.9714608 -0.09765625 37.40234375 C-0.0962413 36.32747208 -0.09482635 35.2526004 -0.09336853 34.14515686 C-0.08781151 30.74257517 -0.07526713 27.34006149 -0.0625 23.9375 C-0.05747944 21.6178395 -0.05291751 19.29817796 -0.04882812 16.97851562 C-0.03871094 11.31896371 -0.01912731 5.65955717 0 0 Z" transform="translate(525 340)" class="svgShape colorffffff-17 selectable"></path><path fill="#000000" d="M0 0 C5.61 0 11.22 0 17 0 C20.90415136 6.88967887 24.50209939 13.89601629 28 21 C32.28399295 14.21333075 35.79261362 7.3581217 39 0 C44.61 0 50.22 0 56 0 C56.495 0.99 56.495 0.99 57 2 C56.03125 4.23974609 56.03125 4.23974609 54.5 7.0234375 C53.94538086 8.03825195 53.39076172 9.05306641 52.81933594 10.09863281 C51.91876465 11.72043457 51.91876465 11.72043457 51 13.375 C50.1032959 15.02773926 50.1032959 15.02773926 49.18847656 16.71386719 C44.20180558 25.85022853 44.20180558 25.85022853 41.609375 29.5546875 C35.51749374 38.38535571 35.92807695 47.60198227 36 58 C32.8821127 58.82799524 30.10978164 59.16335984 26.875 59.1875 C26.00617187 59.20167969 25.13734375 59.21585937 24.2421875 59.23046875 C22 59 22 59 20 57 C19.80810547 55.15917969 19.80810547 55.15917969 19.8671875 52.921875 C19.91241405 40.4136769 18.05419112 33.32194142 11 23 C9.91236498 21.07649732 8.84788188 19.13962624 7.8125 17.1875 C6.40815694 14.58273219 4.9948794 11.99109638 3.51953125 9.42578125 C3.05933594 8.62527344 2.59914063 7.82476562 2.125 7 C1.71507813 6.29875 1.30515625 5.5975 0.8828125 4.875 C0 3 0 3 0 0 Z" transform="translate(18 340)" class="svgShape colorffffff-18 selectable"></path><path fill="#000000" d="M0 0 C16.5 0 33 0 50 0 C50 4.29 50 8.58 50 13 C44.39 13 38.78 13 33 13 C33 27.85 33 42.7 33 58 C28.05 58 23.1 58 18 58 C18 43.15 18 28.3 18 13 C12.39 13 6.78 13 1 13 C0.67 12.67 0.34 12.34 0 12 C0 8.04 0 4.08 0 0 Z" transform="translate(188 340)" class="svgShape colorffffff-19 selectable"></path><path fill="#000000" d="M0 0 C0.33 0.99 0.66 1.98 1 3 C-0.28965176 4.37562854 -1.62689293 5.70766393 -3 7 C-3.66 7 -4.32 7 -5 7 C-5.268125 7.639375 -5.53625 8.27875 -5.8125 8.9375 C-7 11 -7 11 -10 12 C-11.20882096 14.00016466 -11.20882096 14.00016466 -12 16 C-12.66 16 -13.32 16 -14 16 C-14.20625 16.53625 -14.4125 17.0725 -14.625 17.625 C-16.57996944 21.0017654 -19.18223695 23.30474839 -22 26 C-22.99 25.67 -23.98 25.34 -25 25 C-16.75 16.75 -8.5 8.5 0 0 Z" transform="translate(261 33)" class="svgShape colorffffff-20 selectable"></path><path fill="#000000" d="M0 0 C13.86 0 27.72 0 42 0 C42 1.65 42 3.3 42 5 C41.34 4.34 40.68 3.68 40 3 C40.33 2.34 40.66 1.68 41 1 C40.01 1.33 39.02 1.66 38 2 C35.35257048 2.07308294 32.73234061 2.09190012 30.0859375 2.0625 C28.93056992 2.05682007 28.93056992 2.05682007 27.75186157 2.05102539 C25.29285092 2.03880965 22.8339575 2.02017114 20.375 2 C17.13281587 1.97351775 13.89068844 1.95347901 10.6484375 1.9375 C9.89742767 1.92920166 9.14641785 1.92090332 8.37265015 1.91235352 C6.58154894 1.90379102 4.79032775 1.94667676 3 2 C1.41727399 3.58272601 1.65264253 5.38034003 1.4375 7.5625 C1.35371094 8.38878906 1.26992188 9.21507812 1.18359375 10.06640625 C1.12300781 10.70449219 1.06242188 11.34257812 1 12 C0.67 12 0.34 12 0 12 C0 8.04 0 4.08 0 0 Z" transform="translate(525 340)" class="svgShape colorffffff-21 selectable"></path><path fill="#000000" d="M0 0 C0 4.3428663 -2.65476083 6.26606178 -5.5 9.25 C-6.04301758 9.82903076 -6.58603516 10.40806152 -7.14550781 11.00463867 C-11.19899652 15.27925945 -15.41626232 19.29256511 -20 23 C-20.66 22.67 -21.32 22.34 -22 22 C-14.74 14.74 -7.48 7.48 0 0 Z" transform="translate(390 214)" class="svgShape colorffffff-22 selectable"></path><path fill="#000000" d="M0 0 C12.54 0 25.08 0 38 0 C38 0.33 38 0.66 38 1 C36.41747437 1.03758423 36.41747437 1.03758423 34.80297852 1.07592773 C30.90229372 1.16984109 27.00179375 1.27010034 23.10131836 1.37231445 C21.41060701 1.41572439 19.71985009 1.45739489 18.02905273 1.49731445 C15.60386394 1.55487094 13.17890585 1.61860649 10.75390625 1.68359375 C9.61327477 1.70866249 9.61327477 1.70866249 8.44960022 1.73423767 C4.92917969 1.52091268 4.92917969 1.52091268 2 3 C1.76807135 4.51469448 1.58784762 6.03754562 1.4375 7.5625 C1.35371094 8.38878906 1.26992187 9.21507812 1.18359375 10.06640625 C1.12300781 10.70449219 1.06242188 11.34257812 1 12 C0.67 12 0.34 12 0 12 C0 8.04 0 4.08 0 0 Z" transform="translate(188 340)" class="svgShape colorffffff-23 selectable"></path><path fill="#000000" d="M0 0 C0.33 0.99 0.66 1.98 1 3 C-0.375 4.5 -0.375 4.5 -2 6 C-2.66 6 -3.32 6 -4 6 C-4.2475 6.61875 -4.495 7.2375 -4.75 7.875 C-6.23740369 10.40358627 -7.43678009 10.71839004 -10 12 C-11.18330183 13.86644906 -11.18330183 13.86644906 -12 16 C-12.66666667 17.33333333 -13.33333333 18.66666667 -14 20 C-14.69897461 17.7355957 -14.69897461 17.7355957 -15 15 C-13.73657227 13.05541992 -13.73657227 13.05541992 -11.81640625 11.23046875 C-11.13642578 10.56982422 -10.45644531 9.90917969 -9.75585938 9.22851562 C-9.03205078 8.55498047 -8.30824219 7.88144531 -7.5625 7.1875 C-6.84255859 6.49462891 -6.12261719 5.80175781 -5.38085938 5.08789062 C-3.59992004 3.37771709 -1.80653898 1.68304201 0 0 Z" transform="translate(367 183)" class="svgShape colorffffff-24 selectable"></path><path fill="#000000" d="M0 0 C0.99 0.33 1.98 0.66 3 1 C1.28001336 2.801317 -0.45002291 4.59068463 -2.1875 6.375 C-2.91163086 7.13683594 -2.91163086 7.13683594 -3.65039062 7.9140625 C-6.56117467 10.88345293 -9.00455339 12.78748787 -13 14 C-8.88380164 9.08064098 -4.59589638 4.47352044 0 0 Z" transform="translate(324 226)" class="svgShape colorffffff-25 selectable"></path><path fill="#000000" d="M0 0 C1.32 0.66 2.64 1.32 4 2 C3.29875 2.391875 2.5975 2.78375 1.875 3.1875 C-0.36778306 4.60142845 -2.20102319 5.96946601 -4.1875 7.6875 C-7 10 -7 10 -9 10 C-7.75537955 6.26613864 -6.08692325 5.35194152 -3 3 C-1.9826127 2.01769502 -0.97403883 1.02530403 0 0 Z" transform="translate(217 119)" class="svgShape colorffffff-26 selectable"></path><path fill="#000000" d="M0 0 C0.66 0.33 1.32 0.66 2 1 C0.92173635 2.27513763 -0.16285519 3.54492569 -1.25 4.8125 C-1.85328125 5.52019531 -2.4565625 6.22789063 -3.078125 6.95703125 C-4.92370398 8.91889671 -6.79945332 10.45669625 -9 12 C-9.66 11.67 -10.32 11.34 -11 11 C-10.01 10.67 -9.02 10.34 -8 10 C-7.5978125 9.1646875 -7.5978125 9.1646875 -7.1875 8.3125 C-5.42097496 4.87242492 -2.78863174 2.66738688 0 0 Z" transform="translate(200 94)" class="svgShape colorffffff-27 selectable"></path><path fill="#000000" d="M0 0 C0.33 0.99 0.66 1.98 1 3 C-0.75109743 5.62664615 -2.13547912 7.13118791 -4.5 9.125 C-5.1084375 9.64320313 -5.716875 10.16140625 -6.34375 10.6953125 C-8 12 -8 12 -10 13 C-9.45912682 9.21388773 -7.88277668 7.44599233 -5 5 C-4.34 5 -3.68 5 -3 5 C-3 4.34 -3 3.68 -3 3 C-1.5 1.375 -1.5 1.375 0 0 Z" transform="translate(191 144)" class="svgShape colorffffff-28 selectable"></path><path fill="#000000" d="M0 0 C0.66 0.33 1.32 0.66 2 1 C0.89718873 2.27200971 -0.20730769 3.54255853 -1.3125 4.8125 C-1.92738281 5.52019531 -2.54226562 6.22789062 -3.17578125 6.95703125 C-4.73334335 8.70136739 -6.32658875 10.36778041 -8 12 C-8.99 11.67 -9.98 11.34 -11 11 C-10.01 10.67 -9.02 10.34 -8 10 C-6.79117904 7.99983534 -6.79117904 7.99983534 -6 6 C-5.34 6 -4.68 6 -4 6 C-3.67 5.01 -3.34 4.02 -3 3 C-2.34 3 -1.68 3 -1 3 C-0.67 2.01 -0.34 1.02 0 0 Z" transform="translate(167 127)" class="svgShape colorffffff-29 selectable"></path><path fill="#000000" d="M0 0 C0 4.35637821 -2.27897057 6.05610053 -5.109375 9.19140625 C-7.24427494 11.23367623 -9.12212703 12.30233382 -12 13 C-8.19524578 8.43969176 -4.25030379 4.14910608 0 0 Z" transform="translate(227 67)" class="svgShape colorffffff-30 selectable"></path><path fill="#000000" d="M0 0 C0 3.96130371 -1.34877125 4.82914401 -4 7.6875 C-4.7425 8.49574219 -5.485 9.30398437 -6.25 10.13671875 C-6.8275 10.75160156 -7.405 11.36648437 -8 12 C-8.99 11.67 -9.98 11.34 -11 11 C-7.37 7.37 -3.74 3.74 0 0 Z" transform="translate(367 237)" class="svgShape colorffffff-31 selectable"></path><path fill="#000000" d="M0 0 C0.66 0 1.32 0 2 0 C0.53033642 3.39859703 -1.38037514 5.64963709 -4 8.25 C-4.70125 8.95640625 -5.4025 9.6628125 -6.125 10.390625 C-8 12 -8 12 -10 12 C-8.85274723 8.55824169 -7.74715348 7.70880725 -5 5.4375 C-2.05040821 3.07789673 -2.05040821 3.07789673 0 0 Z" transform="translate(258 229)" class="svgShape colorffffff-32 selectable"></path><path fill="#000000" d="M0 0 C0.33 0.99 0.66 1.98 1 3 C-0.28965176 4.37562854 -1.62689293 5.70766393 -3 7 C-3.66 7 -4.32 7 -5 7 C-5.66 8.32 -6.32 9.64 -7 11 C-7.33 10.01 -7.66 9.02 -8 8 C-5.36 5.36 -2.72 2.72 0 0 Z" transform="translate(261 33)" class="svgShape colorffffff-33 selectable"></path><path fill="#000000" d="M0 0 C0.66 0.33 1.32 0.66 2 1 C0.75965588 2.32162881 -0.49268626 3.63200453 -1.75 4.9375 C-2.44609375 5.66839844 -3.1421875 6.39929688 -3.859375 7.15234375 C-6.00599725 9.00517646 -7.23532932 9.60771565 -10 10 C-8.71937515 8.2925002 -7.38232443 6.62626404 -6 5 C-5.34 5 -4.68 5 -4 5 C-3.67 4.01 -3.34 3.02 -3 2 C-2.01 1.34 -1.02 0.68 0 0 Z" transform="translate(183 112)" class="svgShape colorffffff-34 selectable"></path><path fill="#000000" d="M0 0 C0.33 0.66 0.66 1.32 1 2 C0.09515208 3.15518918 -0.8244206 4.29885406 -1.75 5.4375 C-2.26046875 6.07558594 -2.7709375 6.71367187 -3.296875 7.37109375 C-5.19667629 9.18810554 -6.43586908 9.60423197 -9 10 C-8.06409496 8.8944811 -7.12620142 7.79064547 -6.1875 6.6875 C-5.66542969 6.07261719 -5.14335937 5.45773437 -4.60546875 4.82421875 C-3.12827531 3.14575321 -1.59960869 1.56117966 0 0 Z" transform="translate(331 273)" class="svgShape colorffffff-35 selectable"></path><path fill="#000000" d="M0 0 C0 3.58912412 -0.66436554 4.10857029 -3 6.6875 C-3.556875 7.31011719 -4.11375 7.93273437 -4.6875 8.57421875 C-5.120625 9.04472656 -5.55375 9.51523438 -6 10 C-6.99 9.67 -7.98 9.34 -9 9 C-6.03 6.03 -3.06 3.06 0 0 Z" transform="translate(377 173)" class="svgShape colorffffff-36 selectable"></path><path fill="#000000" d="M0 0 C1.32 0.99 2.64 1.98 4 3 C3.45773019 6.79588866 1.79872437 8.47211993 -1 11 C-1 10.01 -1 9.02 -1 8 C-0.34 8 0.32 8 1 8 C0.7525 6.576875 0.7525 6.576875 0.5 5.125 C0 2 0 2 0 0 Z" transform="translate(340 88)" class="svgShape colorffffff-37 selectable"></path><path fill="#000000" d="M0 0 C0.33 0.66 0.66 1.32 1 2 C-3.82142857 8.29464286 -3.82142857 8.29464286 -8 9 C-7.04270084 7.87411986 -6.08412105 6.7493285 -5.125 5.625 C-4.59132813 4.99851563 -4.05765625 4.37203125 -3.5078125 3.7265625 C-2.38567993 2.44163349 -1.20628025 1.20628025 0 0 Z" transform="translate(303 247)" class="svgShape colorffffff-38 selectable"></path><path fill="#000000" d="M0 0 C0.99 0.33 1.98 0.66 3 1 C-0.96 4.465 -0.96 4.465 -5 8 C-5.66 7.67 -6.32 7.34 -7 7 C-4.69 4.69 -2.38 2.38 0 0 Z" transform="translate(212 82)" class="svgShape colorffffff-39 selectable"></path><path fill="#000000" d="M0 0 C2.64 0 5.28 0 8 0 C6.33333333 1.66666667 4.66666667 3.33333333 3 5 C1.5 3.625 1.5 3.625 0 2 C0 1.34 0 0.68 0 0 Z" transform="translate(152 193)" class="svgShape colorffffff-40 selectable"></path><path fill="#000000" d="M0 0 C0.99 0.33 1.98 0.66 3 1 C3 1.66 3 2.32 3 3 C1.04072937 4.7143618 -0.95880212 6.38405168 -3 8 C-1.125 2.25 -1.125 2.25 0 0 Z" transform="translate(57 340)" class="svgShape colorffffff-41 selectable"></path><path fill="#000000" d="M0 0 C0.33 0.99 0.66 1.98 1 3 C-0.32 4.32 -1.64 5.64 -3 7 C-3.99 6.67 -4.98 6.34 -6 6 C-4.02 4.02 -2.04 2.04 0 0 Z" transform="translate(310 240)" class="svgShape colorffffff-42 selectable"></path><path fill="#000000" d="M0 0 C0 3 0 3 -2.5 5.6875 C-3.325 6.450625 -4.15 7.21375 -5 8 C-5.66 7.67 -6.32 7.34 -7 7 C-4.69 4.69 -2.38 2.38 0 0 Z" transform="translate(252 42)" class="svgShape colorffffff-43 selectable"></path><path fill="#000000" d="M0 0 C0 0.66 0 1.32 0 2 C-1.96147874 3.38938077 -3.96166576 4.7260411 -6 6 C-6.66 5.67 -7.32 5.34 -8 5 C-3.375 0 -3.375 0 0 0 Z" transform="translate(270 27)" class="svgShape colorffffff-44 selectable"></path><path fill="#000000" d="M0 0 C0.33 0.99 0.66 1.98 1 3 C-0.65 4.32 -2.3 5.64 -4 7 C-4.66 6.67 -5.32 6.34 -6 6 C-4.02 4.02 -2.04 2.04 0 0 Z" transform="translate(367 183)" class="svgShape colorffffff-45 selectable"></path><path fill="#000000" d="M0 0 C0.99 0.33 1.98 0.66 3 1 C0.03 3.475 0.03 3.475 -3 6 C-3.66 5.67 -4.32 5.34 -5 5 C-3.35 3.35 -1.7 1.7 0 0 Z" transform="translate(233 61)" class="svgShape colorffffff-46 selectable"></path></svg></svg></g></svg>